<svg width="70" height="70" viewBox="0 0 70 70" fill="none" xmlns="http://www.w3.org/2000/svg">
<path fill-rule="evenodd" clip-rule="evenodd" d="M44.1291 9.47871H70V46.5295H44.1293V70H25.8709V46.5295H0V9.47871H25.8709V5.4775L35 0L44.1291 5.4775V9.47871ZM35 4.78311L29.9724 7.79967H29.9723V9.47857H40.0276V7.79967L35 4.78311ZM40.0276 65.8984H29.9723V46.5295H40.0276V65.8984ZM4.10156 42.4279H65.8984V13.5803H4.10156V42.4279Z" fill="#F78434"/>
<path fill-rule="evenodd" clip-rule="evenodd" d="M27.0711 33.2502L25.5651 37.2041L21.7322 35.7444L28.1006 19.0238L31.5056 19.0203L37.8199 35.7525L33.9826 37.2006L32.4919 33.2502H27.0711ZM28.6334 29.1487H30.9441L29.7941 26.1012L28.6334 29.1487Z" fill="#F78434"/>
<path d="M48.2624 32.5099H43.473V18.844H39.3715V36.6114H48.2624V32.5099Z" fill="#F78434"/>
<path d="M60.4445 32.5098H54.7341V29.8352H60.0234V25.7336H54.7341V23.0588H60.4445V18.9573H50.6326V36.6114H60.4445V32.5098Z" fill="#F78434"/>
<path d="M14.4225 23.0677C15.9685 22.3819 18.2923 24.0497 19.5359 25.1699L22.0805 21.953C18.3441 18.5349 15.2096 18.5088 13.2177 19.1469C11.233 19.7462 9.82463 21.3158 9.53574 23.2572C9.25834 25.1209 10.0587 26.9132 11.6248 27.934C11.8963 28.1111 13.7677 28.9109 16.014 29.7536C16.8487 30.0614 17.7009 30.6125 17.5896 31.2357C17.4978 31.7495 16.7818 32.5096 15.5361 32.5096C13.5222 32.6265 12.0289 30.9844 10.9122 29.6362L7.87311 32.3905C9.74971 34.7914 12.2987 36.6791 15.5362 36.6112C18.5841 36.6112 21.1458 34.6536 21.6274 31.9566C21.9922 29.9137 21.0821 27.2511 17.4334 25.9054C15.813 25.3077 14.3003 24.658 13.7753 24.4289C13.4052 23.9654 13.5457 23.4259 14.4225 23.0677Z" fill="#F78434"/>
</svg>
