<svg width="70" height="70" viewBox="0 0 70 70" fill="none" xmlns="http://www.w3.org/2000/svg">
<circle cx="35" cy="35" r="35" fill="#58BEBF" fill-opacity="0.2"/>
<path d="M51.2621 30.8582H43.8783C41.6848 30.8582 39.9066 32.6363 39.9066 34.8298V46.0229C39.9066 48.2164 41.6848 49.9946 43.8783 49.9946H52.1645L53.5632 33.3609C53.6765 32.0139 52.6138 30.8582 51.2621 30.8582Z" fill="#58BEBF"/>
<path d="M35.9351 20.0054H34.0919L33.3796 28.8327C33.1773 31.3401 31.0833 33.2719 28.5678 33.2719H27.1838V47.5808H31.8754C31.8754 47.615 31.8753 47.6491 31.8753 47.6829C31.8738 48.9593 32.9081 49.9945 34.1845 49.9945H39.235C38.319 48.9252 37.7638 47.538 37.7638 46.0229V34.8297C37.7638 32.9734 38.5964 31.3087 39.9066 30.1864V23.9769C39.9067 21.7835 38.1285 20.0054 35.9351 20.0054V20.0054Z" fill="#58BEBF"/>
<path d="M17 31.8374H25.0409V49.0155H17V31.8374Z" fill="#58BEBF"/>
</svg>
